<svg id="Layer_3" enable-background="new 0 0 64 64" height="512" viewBox="0 0 64 64" width="512" xmlns="http://www.w3.org/2000/svg"><g><circle cx="29" cy="29" fill="#c7e2fc" r="27"/><path d="m18.642 15.264c1.39.47 2.358 1.518 2.358 2.736 0 1.657-1.791 3-4 3s-4-1.343-4-3c0-1.218.968-2.267 2.358-2.736" fill="#96cc7f"/><path d="m24.995 55.706c-.099-2.989-1.707-5.733-4.283-7.278l-3.507-2.104c-1.44-.864-2.604-2.121-3.355-3.623-1.747-3.494-5.317-5.701-9.223-5.701h-1.422c-.783-2.528-1.205-5.215-1.205-8 0-2.056.23-4.059.665-5.984l.004-.016h6.331c2.209 0 4 1.791 4 4 0 2.209 1.791 4 4 4h1.42c2.038 0 3.75 1.533 3.976 3.558l.409 3.679c.104.94-.633 1.763-1.579 1.763-1.466 0-2.149 1.817-1.046 2.783l.771.675c2.042 1.787 4.945 2.074 7.266.83l5.539-2.472c1.825-.191 3.635.399 4.994 1.582l1.891 9.97c-3.524 1.687-7.472 2.632-11.641 2.632-1.361 0-2.698-.101-4.005-.294z" fill="#78b75b"/><path d="m46 8v10c0 1.105-.895 2-2 2h-2.5c-.828 0-1.5.672-1.5 1.5 0 .842-.693 1.521-1.539 1.499-.823-.021-1.461.736-1.461 1.559v1.942c0 .828.672 1.5 1.5 1.5 1.995 0 3.601 1.67 3.495 3.688-.099 1.893-1.798 3.312-3.693 3.312h-6.802c-1.933 0-3.5-1.563-3.5-3.825v-1.674c0-1.968-1.622-3.434-3.589-3.502-1.438-.05-2.567-1.314-2.394-2.799.15-1.282 1.327-2.2 2.617-2.2h.366 7c1.105 0 2-.895 2-2 0-1.091-.874-1.978-1.959-2-1.109-.022-2.041-.812-2.041-1.92v-3.102c-1.208-.913-2-2.348-2-3.978v-6l.001.018c.331-.012.664-.018.999-.018 6.438 0 12.349 2.253 16.989 6.014z" fill="#78b75b"/><path d="m51 55 3 3 4-4-3-3" fill="#758190"/><circle cx="47" cy="47" fill="#8892a0" r="9"/><circle cx="47" cy="47" fill="#ebf7fe" r="6"/><path d="m49 45.5v3.5h-4v-3.5l2-1.5z" fill="#c1c8d1"/><path d="m20 12.169v-.169c0-1.657-1.343-3-3-3-1.657 0-3 1.343-3 3v.169c0 .544.148 1.077.428 1.543l2.572 4.288 2.572-4.287c.28-.467.428-1 .428-1.544z" fill="#c66b60"/><path d="m55 57 4.586 4.586c.265.265.625.414 1 .414.781 0 1.414-.633 1.414-1.414 0-.375-.149-.735-.414-1l-4.586-4.586" fill="#cbc3b6"/><path d="m50.642 29.264c1.39.469 2.358 1.518 2.358 2.736 0 1.657-1.791 3-4 3s-4-1.343-4-3c0-1.218.968-2.267 2.358-2.736" fill="#669e4f"/><path d="m32.642 46.264c1.39.469 2.358 1.518 2.358 2.736 0 1.657-1.791 3-4 3s-4-1.343-4-3c0-1.218.968-2.267 2.358-2.736" fill="#f7d881"/><g><path d="m50.399 47.799-3.4-2.55-3.4 2.55-1.2-1.601 4-3c.356-.265.845-.266 1.2 0l4 3z" fill="#758190"/></g><path d="m52 26.169v-.169c0-1.657-1.343-3-3-3-1.657 0-3 1.343-3 3v.169c0 .544.148 1.077.428 1.543l2.572 4.288 2.572-4.287c.28-.467.428-1 .428-1.544z" fill="#c16b3f"/><path d="m34 43.169v-.169c0-1.657-1.343-3-3-3-1.657 0-3 1.343-3 3v.169c0 .544.148 1.077.428 1.543l2.572 4.288 2.572-4.287c.28-.467.428-1 .428-1.544z" fill="#c66b60"/><path d="m17.926 9.161c-.293-.096-.601-.161-.926-.161-1.657 0-3 1.343-3 3v.169c0 .544.148 1.077.428 1.544l.633 1.055c1.746-.819 2.964-2.58 2.964-4.636-.001-.333-.038-.656-.099-.971z" fill="#e47c6e"/><path d="m31.926 40.161c-.293-.096-.601-.161-.926-.161-1.657 0-3 1.343-3 3v.169c0 .544.148 1.077.428 1.544l.633 1.055c1.746-.819 2.964-2.58 2.964-4.636-.001-.333-.038-.656-.099-.971z" fill="#e47c6e"/><path d="m49 23c-1.657 0-3 1.343-3 3v.169c0 .544.148 1.077.428 1.544l.602 1.004c1.748-1.235 2.901-3.247 2.96-5.536-.311-.11-.641-.181-.99-.181z" fill="#e39854"/></g></svg>