<svg id="icons" enable-background="new 0 0 64 64" height="512" viewBox="0 0 64 64" width="512" xmlns="http://www.w3.org/2000/svg"><path d="m58 1h-52c-1.1 0-2 .9-2 2v6 46c0 1.1.9 2 2 2h52c1.1 0 2-.9 2-2v-46-6c0-1.1-.9-2-2-2z" fill="#965353"/><g fill="#e6e9ed"><path d="m8 13h8v8h-8z"/><path d="m24 13h8v8h-8z"/><path d="m32 5h8v8h-8z"/><path d="m40 13h8v8h-8z"/><path d="m48 5h8v8h-8z"/><path d="m16 5h8v8h-8z"/></g><path d="m16 45h8v8h-8z" fill="#434a54"/><path d="m24 37h8v8h-8z" fill="#434a54"/><path d="m40 37h8v8h-8z" fill="#434a54"/><path d="m48 45h8v8h-8z" fill="#434a54"/><path d="m32 45h8v8h-8z" fill="#434a54"/><path d="m8 37h8v8h-8z" fill="#434a54"/><path d="m8 29h8v8h-8z" fill="#e6e9ed"/><path d="m8 5h8v8h-8z" fill="#434a54"/><path d="m4 61v-6c0 1.1.9 2 2 2h52c1.1 0 2-.9 2-2v6c0 1.1-.9 2-2 2h-52c-1.1 0-2-.9-2-2z" fill="#844747"/><path d="m16 29h8v8h-8z" fill="#434a54"/><path d="m16 13h8v8h-8z" fill="#434a54"/><path d="m16 21h8v8h-8z" fill="#e6e9ed"/><path d="m16 37h8v8h-8z" fill="#e6e9ed"/><path d="m32 21h8v8h-8z" fill="#e6e9ed"/><path d="m24 21h8v8h-8z" fill="#434a54"/><path d="m24 29h8v8h-8z" fill="#e6e9ed"/><path d="m24 5h8v8h-8z" fill="#434a54"/><path d="m24 45h8v8h-8z" fill="#e6e9ed"/><path d="m32 29h8v8h-8z" fill="#434a54"/><path d="m32 13h8v8h-8z" fill="#434a54"/><path d="m32 37h8v8h-8z" fill="#e6e9ed"/><path d="m40 29h8v8h-8z" fill="#e6e9ed"/><path d="m40 21h8v8h-8z" fill="#434a54"/><path d="m40 5h8v8h-8z" fill="#434a54"/><path d="m48 37h8v8h-8z" fill="#e6e9ed"/><path d="m48 13h8v8h-8z" fill="#434a54"/><path d="m40 45h8v8h-8z" fill="#e6e9ed"/><path d="m48 29h8v8h-8z" fill="#434a54"/><path d="m48 21h8v8h-8z" fill="#e6e9ed"/><path d="m8 21h8v8h-8z" fill="#434a54"/><path d="m8 45h8v8h-8z" fill="#e6e9ed"/><path d="m11.992 7c1.375 0 2.5 1.112 2.5 2.5 0 1.375-1.125 2.5-2.5 2.5s-2.5-1.125-2.5-2.5c0-1.388 1.125-2.5 2.5-2.5z" fill="#844747"/><path d="m9.492 8.5h5v1h-5z" fill="#844747"/><path d="m11.992 6c1.375 0 2.5 1.112 2.5 2.5 0 1.375-1.125 2.5-2.5 2.5s-2.5-1.126-2.5-2.5c0-1.389 1.125-2.5 2.5-2.5z" fill="#965353"/><path d="m11.992 39.001c1.375 0 2.5 1.112 2.5 2.5 0 1.374-1.125 2.5-2.5 2.5s-2.5-1.126-2.5-2.5c0-1.388 1.125-2.5 2.5-2.5z" fill="#ccd1d9"/><path d="m9.492 40.5h5v1.001h-5z" fill="#ccd1d9"/><path d="m11.992 38c1.375 0 2.5 1.112 2.5 2.5 0 1.375-1.125 2.5-2.5 2.5s-2.5-1.125-2.5-2.5c0-1.388 1.125-2.5 2.5-2.5z" fill="#e6e9ed"/><path d="m28 39.001c1.375 0 2.5 1.112 2.5 2.5 0 1.374-1.125 2.5-2.5 2.5s-2.5-1.126-2.5-2.5c0-1.388 1.125-2.5 2.5-2.5z" fill="#ccd1d9"/><path d="m25.5 40.5h5v1.001h-5z" fill="#ccd1d9"/><path d="m28 38c1.375 0 2.5 1.112 2.5 2.5 0 1.375-1.125 2.5-2.5 2.5s-2.5-1.125-2.5-2.5c0-1.388 1.125-2.5 2.5-2.5z" fill="#e6e9ed"/><path d="m44.008 39.001c1.375 0 2.5 1.112 2.5 2.5 0 1.374-1.125 2.5-2.5 2.5s-2.5-1.126-2.5-2.5c0-1.388 1.125-2.5 2.5-2.5z" fill="#ccd1d9"/><path d="m41.508 40.5h5v1.001h-5z" fill="#ccd1d9"/><path d="m44.008 38c1.375 0 2.5 1.112 2.5 2.5 0 1.375-1.125 2.5-2.5 2.5s-2.5-1.125-2.5-2.5c0-1.388 1.125-2.5 2.5-2.5z" fill="#e6e9ed"/><path d="m52 47.001c1.375 0 2.5 1.112 2.5 2.5 0 1.374-1.125 2.5-2.5 2.5s-2.5-1.126-2.5-2.5c0-1.388 1.125-2.5 2.5-2.5z" fill="#ccd1d9"/><path d="m49.5 48.5h5v1.001h-5z" fill="#ccd1d9"/><path d="m52 46c1.375 0 2.5 1.112 2.5 2.5 0 1.375-1.125 2.5-2.5 2.5s-2.5-1.125-2.5-2.5c0-1.388 1.125-2.5 2.5-2.5z" fill="#e6e9ed"/><path d="m36 47.001c1.375 0 2.5 1.112 2.5 2.5 0 1.374-1.125 2.5-2.5 2.5s-2.5-1.126-2.5-2.5c0-1.388 1.125-2.5 2.5-2.5z" fill="#ccd1d9"/><path d="m33.5 48.5h5v1.001h-5z" fill="#ccd1d9"/><path d="m36 46c1.375 0 2.5 1.112 2.5 2.5 0 1.375-1.125 2.5-2.5 2.5s-2.5-1.125-2.5-2.5c0-1.388 1.125-2.5 2.5-2.5z" fill="#e6e9ed"/><path d="m20 47.001c1.375 0 2.5 1.112 2.5 2.5 0 1.374-1.125 2.5-2.5 2.5s-2.5-1.126-2.5-2.5c0-1.388 1.125-2.5 2.5-2.5z" fill="#ccd1d9"/><path d="m17.5 48.5h5v1.001h-5z" fill="#ccd1d9"/><path d="m20 46c1.375 0 2.5 1.112 2.5 2.5 0 1.375-1.125 2.5-2.5 2.5s-2.5-1.125-2.5-2.5c0-1.388 1.125-2.5 2.5-2.5z" fill="#e6e9ed"/><path d="m27.992 7c1.375 0 2.5 1.112 2.5 2.5 0 1.375-1.125 2.5-2.5 2.5s-2.5-1.125-2.5-2.5c0-1.388 1.125-2.5 2.5-2.5z" fill="#844747"/><path d="m25.492 8.5h5v1h-5z" fill="#844747"/><path d="m27.992 6c1.375 0 2.5 1.112 2.5 2.5 0 1.375-1.125 2.5-2.5 2.5s-2.5-1.126-2.5-2.5c0-1.389 1.125-2.5 2.5-2.5z" fill="#965353"/><path d="m43.992 7c1.375 0 2.5 1.112 2.5 2.5 0 1.375-1.125 2.5-2.5 2.5s-2.5-1.125-2.5-2.5c0-1.388 1.125-2.5 2.5-2.5z" fill="#844747"/><path d="m41.492 8.5h5v1h-5z" fill="#844747"/><path d="m43.992 6c1.375 0 2.5 1.112 2.5 2.5 0 1.375-1.125 2.5-2.5 2.5s-2.5-1.126-2.5-2.5c0-1.389 1.125-2.5 2.5-2.5z" fill="#965353"/><path d="m20 15c1.375 0 2.5 1.112 2.5 2.5 0 1.375-1.125 2.5-2.5 2.5s-2.5-1.125-2.5-2.5c0-1.388 1.125-2.5 2.5-2.5z" fill="#844747"/><path d="m17.5 16.5h5v1h-5z" fill="#844747"/><path d="m20 14c1.375 0 2.5 1.111 2.5 2.5 0 1.374-1.125 2.5-2.5 2.5s-2.5-1.126-2.5-2.5c0-1.389 1.125-2.5 2.5-2.5z" fill="#965353"/><path d="m36 15c1.375 0 2.5 1.112 2.5 2.5 0 1.375-1.125 2.5-2.5 2.5s-2.5-1.125-2.5-2.5c0-1.388 1.125-2.5 2.5-2.5z" fill="#844747"/><path d="m33.5 16.5h5v1h-5z" fill="#844747"/><path d="m36 14c1.375 0 2.5 1.111 2.5 2.5 0 1.374-1.125 2.5-2.5 2.5s-2.5-1.126-2.5-2.5c0-1.389 1.125-2.5 2.5-2.5z" fill="#965353"/><path d="m52 15c1.375 0 2.5 1.112 2.5 2.5 0 1.375-1.125 2.5-2.5 2.5s-2.5-1.125-2.5-2.5c0-1.388 1.125-2.5 2.5-2.5z" fill="#844747"/><path d="m49.5 16.5h5v1h-5z" fill="#844747"/><path d="m52 14c1.375 0 2.5 1.111 2.5 2.5 0 1.374-1.125 2.5-2.5 2.5s-2.5-1.126-2.5-2.5c0-1.389 1.125-2.5 2.5-2.5z" fill="#965353"/></svg>